<svg xmlns="http://www.w3.org/2000/svg" class="plt-container" width="600.0" height="400.0">
  <style type="text/css">
  .plt-container {
	font-family: "Lucida Grande", sans-serif;
	cursor: crosshair;
	user-select: none;
	-webkit-user-select: none;
	-moz-user-select: none;
	-ms-user-select: none;
}
.plt-backdrop {
   fill: white;
}
.plt-transparent .plt-backdrop {
   visibility: hidden;
}
text {
	font-size: 15px;
	fill: #3d3d3d;
	
	text-rendering: optimizeLegibility;
}
.plt-data-tooltip text {
	font-size: 13px;
}
.plt-axis-tooltip text {
	font-size: 13px;
}
.plt-axis line {
	shape-rendering: crispedges;
}
.plt-plot-title {

  font-size: 19.0px;
  font-weight: bold;
}
.plt-axis .tick text {

  font-size: 13.0px;
}
.plt-axis.small-tick-font .tick text {

  font-size: 11.0px;
}
.plt-axis-title text {

  font-size: 15.0px;
}
.plt_legend .legend-title text {

  font-size: 15.0px;
  font-weight: bold;
}
.plt_legend text {

  font-size: 13.0px;
}

  </style>
  <rect class="plt-backdrop" width="100%" height="100%">
  </rect>
  <g class="plt-plot">
    <g transform="translate(23.0 37.0 ) ">
      <g transform="translate(29.130000000000003 320.0 ) " class="plt-axis">
        <line x1="11.789791280148425" y1="0.0" x2="11.789791280148425" y2="-320.0" stroke="rgb(233,233,233)" stroke-opacity="1.0" stroke-width="1.0">
        </line>
        <line x1="93.09869666048237" y1="0.0" x2="93.09869666048237" y2="-320.0" stroke="rgb(233,233,233)" stroke-opacity="1.0" stroke-width="1.0">
        </line>
        <line x1="174.40760204081633" y1="0.0" x2="174.40760204081633" y2="-320.0" stroke="rgb(233,233,233)" stroke-opacity="1.0" stroke-width="1.0">
        </line>
        <line x1="255.71650742115025" y1="0.0" x2="255.71650742115025" y2="-320.0" stroke="rgb(233,233,233)" stroke-opacity="1.0" stroke-width="1.0">
        </line>
        <line x1="337.02541280148426" y1="0.0" x2="337.02541280148426" y2="-320.0" stroke="rgb(233,233,233)" stroke-opacity="1.0" stroke-width="1.0">
        </line>
        <line x1="418.33431818181816" y1="0.0" x2="418.33431818181816" y2="-320.0" stroke="rgb(233,233,233)" stroke-opacity="1.0" stroke-width="1.0">
        </line>
        <g class="tick" transform="translate(11.789791280148425 0.0 ) ">
          <line stroke-width="1.0" stroke="rgb(71,71,71)" stroke-opacity="1.0" x2="0.0" y2="4.0">
          </line>
          <g transform="translate(0.0 7.0 ) ">
            <text style="fill:#474747;" text-anchor="middle" dy="0.7em">
            0
            </text>
          </g>
        </g>
        <g class="tick" transform="translate(93.09869666048237 0.0 ) ">
          <line stroke-width="1.0" stroke="rgb(71,71,71)" stroke-opacity="1.0" x2="0.0" y2="4.0">
          </line>
          <g transform="translate(0.0 7.0 ) ">
            <text style="fill:#474747;" text-anchor="middle" dy="0.7em">
            10
            </text>
          </g>
        </g>
        <g class="tick" transform="translate(174.40760204081633 0.0 ) ">
          <line stroke-width="1.0" stroke="rgb(71,71,71)" stroke-opacity="1.0" x2="0.0" y2="4.0">
          </line>
          <g transform="translate(0.0 7.0 ) ">
            <text style="fill:#474747;" text-anchor="middle" dy="0.7em">
            20
            </text>
          </g>
        </g>
        <g class="tick" transform="translate(255.71650742115025 0.0 ) ">
          <line stroke-width="1.0" stroke="rgb(71,71,71)" stroke-opacity="1.0" x2="0.0" y2="4.0">
          </line>
          <g transform="translate(0.0 7.0 ) ">
            <text style="fill:#474747;" text-anchor="middle" dy="0.7em">
            30
            </text>
          </g>
        </g>
        <g class="tick" transform="translate(337.02541280148426 0.0 ) ">
          <line stroke-width="1.0" stroke="rgb(71,71,71)" stroke-opacity="1.0" x2="0.0" y2="4.0">
          </line>
          <g transform="translate(0.0 7.0 ) ">
            <text style="fill:#474747;" text-anchor="middle" dy="0.7em">
            40
            </text>
          </g>
        </g>
        <g class="tick" transform="translate(418.33431818181816 0.0 ) ">
          <line stroke-width="1.0" stroke="rgb(71,71,71)" stroke-opacity="1.0" x2="0.0" y2="4.0">
          </line>
          <g transform="translate(0.0 7.0 ) ">
            <text style="fill:#474747;" text-anchor="middle" dy="0.7em">
            50
            </text>
          </g>
        </g>
        <line x1="0.0" y1="0.0" x2="438.255" y2="0.0" stroke-width="1.0" stroke="rgb(71,71,71)" stroke-opacity="1.0">
        </line>
      </g>
      <g transform="translate(29.130000000000003 0.0 ) " class="plt-axis">
        <line x1="0.0" y1="292.140628250468" x2="438.255" y2="292.140628250468" stroke="rgb(233,233,233)" stroke-opacity="1.0" stroke-width="1.0">
        </line>
        <line x1="0.0" y1="258.8558352402746" x2="438.255" y2="258.8558352402746" stroke="rgb(233,233,233)" stroke-opacity="1.0" stroke-width="1.0">
        </line>
        <line x1="0.0" y1="225.5710422300811" x2="438.255" y2="225.5710422300811" stroke="rgb(233,233,233)" stroke-opacity="1.0" stroke-width="1.0">
        </line>
        <line x1="0.0" y1="192.28624921988765" x2="438.255" y2="192.28624921988765" stroke="rgb(233,233,233)" stroke-opacity="1.0" stroke-width="1.0">
        </line>
        <line x1="0.0" y1="159.00145620969417" x2="438.255" y2="159.00145620969417" stroke="rgb(233,233,233)" stroke-opacity="1.0" stroke-width="1.0">
        </line>
        <line x1="0.0" y1="125.71666319950072" x2="438.255" y2="125.71666319950072" stroke="rgb(233,233,233)" stroke-opacity="1.0" stroke-width="1.0">
        </line>
        <line x1="0.0" y1="92.43187018930723" x2="438.255" y2="92.43187018930723" stroke="rgb(233,233,233)" stroke-opacity="1.0" stroke-width="1.0">
        </line>
        <line x1="0.0" y1="59.14707717911381" x2="438.255" y2="59.14707717911381" stroke="rgb(233,233,233)" stroke-opacity="1.0" stroke-width="1.0">
        </line>
        <line x1="0.0" y1="25.862284168920326" x2="438.255" y2="25.862284168920326" stroke="rgb(233,233,233)" stroke-opacity="1.0" stroke-width="1.0">
        </line>
        <g class="tick" transform="translate(0.0 292.140628250468 ) ">
          <g transform="translate(-3.0 0.0 ) ">
            <text style="fill:#474747;" text-anchor="end" dy="0.35em">
            50
            </text>
          </g>
        </g>
        <g class="tick" transform="translate(0.0 258.8558352402746 ) ">
          <g transform="translate(-3.0 0.0 ) ">
            <text style="fill:#474747;" text-anchor="end" dy="0.35em">
            100
            </text>
          </g>
        </g>
        <g class="tick" transform="translate(0.0 225.5710422300811 ) ">
          <g transform="translate(-3.0 0.0 ) ">
            <text style="fill:#474747;" text-anchor="end" dy="0.35em">
            150
            </text>
          </g>
        </g>
        <g class="tick" transform="translate(0.0 192.28624921988765 ) ">
          <g transform="translate(-3.0 0.0 ) ">
            <text style="fill:#474747;" text-anchor="end" dy="0.35em">
            200
            </text>
          </g>
        </g>
        <g class="tick" transform="translate(0.0 159.00145620969417 ) ">
          <g transform="translate(-3.0 0.0 ) ">
            <text style="fill:#474747;" text-anchor="end" dy="0.35em">
            250
            </text>
          </g>
        </g>
        <g class="tick" transform="translate(0.0 125.71666319950072 ) ">
          <g transform="translate(-3.0 0.0 ) ">
            <text style="fill:#474747;" text-anchor="end" dy="0.35em">
            300
            </text>
          </g>
        </g>
        <g class="tick" transform="translate(0.0 92.43187018930723 ) ">
          <g transform="translate(-3.0 0.0 ) ">
            <text style="fill:#474747;" text-anchor="end" dy="0.35em">
            350
            </text>
          </g>
        </g>
        <g class="tick" transform="translate(0.0 59.14707717911381 ) ">
          <g transform="translate(-3.0 0.0 ) ">
            <text style="fill:#474747;" text-anchor="end" dy="0.35em">
            400
            </text>
          </g>
        </g>
        <g class="tick" transform="translate(0.0 25.862284168920326 ) ">
          <g transform="translate(-3.0 0.0 ) ">
            <text style="fill:#474747;" text-anchor="end" dy="0.35em">
            450
            </text>
          </g>
        </g>
      </g>
      <g transform="translate(29.130000000000003 0.0 ) " clip-path="url(#QjXNYN)" clip-bounds-jfx="[rect (0.0, 0.0), (438.255, 320.0)]">
        <defs>
          <clipPath id="QjXNYN">
            <rect x="0.0" y="0.0" width="438.255" height="320.0">
            </rect>
          </clipPath>
        </defs>
        <g>
          <path d="M19.92068181818182 262.18431454129393 L19.92068181818182 262.18431454129393 L28.051572356215214 286.81506136883706 L36.18246289424861 271.5040565841481 L44.313353432282 285.4836696484293 L52.4442439703154 286.1493655086332 L60.575134508348796 284.1522779280216 L68.70602504638218 284.81797378822546 L76.83691558441558 287.48075722904093 L84.96780612244898 287.48075722904093 L93.09869666048237 272.16975244435196 L101.22958719851576 286.1493655086332 L109.36047773654916 287.48075722904093 L117.49136827458256 287.48075722904093 L125.62225881261594 275.4982317453713 L133.75314935064935 286.1493655086332 L141.88403988868274 286.81506136883706 L150.01493042671612 285.4836696484293 L158.14582096474953 287.48075722904093 L166.27671150278292 286.1493655086332 L174.40760204081633 282.82088620761385 L182.5384925788497 276.16392760557517 L190.6693831168831 286.1493655086332 L198.8002736549165 286.81506136883706 L206.9311641929499 284.1522779280216 L215.06205473098328 285.4836696484293 L223.1929452690167 286.1493655086332 L231.32383580705007 266.17848970251714 L239.45472634508346 284.81797378822546 L247.58561688311687 264.8470979821094 L255.71650742115025 285.4836696484293 L263.8473979591837 284.81797378822546 L271.9782884972171 282.82088620761385 L280.10917903525046 284.1522779280216 L288.24006957328385 285.4836696484293 L296.3709601113173 264.18140212190553 L304.5018506493507 285.4836696484293 L312.63274118738406 286.1493655086332 L320.76363172541744 284.1522779280216 L328.8945222634508 284.81797378822546 L337.02541280148426 286.1493655086332 L345.15630333951765 264.18140212190553 L353.28719387755103 286.1493655086332 L361.4180844155844 286.1493655086332 L369.5489749536178 284.81797378822546 L377.6798654916512 284.81797378822546 L385.8107560296846 286.1493655086332 L393.941646567718 284.81797378822546 L402.0725371057514 279.4924069065945 L410.2034276437848 286.1493655086332 L418.33431818181816 264.8470979821094 " fill="none" stroke-width="2.0" stroke="rgb(102,194,165)" stroke-opacity="1.0">
          </path>
        </g>
        <g>
          <path d="M19.92068181818182 295.46910755148735 L19.92068181818182 295.46910755148735 L28.051572356215214 298.13189099230283 L36.18246289424861 294.1377158310796 L44.313353432282 305.45454545454544 L52.4442439703154 288.81214894944867 L60.575134508348796 291.47493239026414 L68.70602504638218 284.1522779280216 L76.83691558441558 278.82671104639064 L84.96780612244898 270.17266486374035 L93.09869666048237 282.15519034741 L101.22958719851576 277.4953193259829 L109.36047773654916 260.1872269606823 L117.49136827458256 266.844185562721 L125.62225881261594 268.8412731433326 L133.75314935064935 269.5069690035365 L141.88403988868274 254.86166007905135 L150.01493042671612 274.16684002496356 L158.14582096474953 248.20470147701266 L166.27671150278292 253.5302683586436 L174.40760204081633 258.8558352402746 L182.5384925788497 253.5302683586436 L190.6693831168831 245.54191803619716 L198.8002736549165 230.89660911171205 L206.9311641929499 263.51570626170167 L215.06205473098328 258.8558352402746 L223.1929452690167 254.19596421884748 L231.32383580705007 248.20470147701266 L239.45472634508346 255.52735593925522 L247.58561688311687 252.86457249843974 L255.71650742115025 232.2280008321198 L263.8473979591837 238.2192635739546 L271.9782884972171 240.88204701477008 L280.10917903525046 196.28042438111086 L288.24006957328385 14.545454545454561 L296.3709601113173 262.18431454129393 L304.5018506493507 240.2163511545662 L312.63274118738406 241.54774287497395 L320.76363172541744 255.52735593925522 L328.8945222634508 245.54191803619716 L337.02541280148426 252.86457249843974 L345.15630333951765 243.54483045558555 L353.28719387755103 205.60016642396502 L361.4180844155844 217.58269190763468 L369.5489749536178 240.88204701477008 L377.6798654916512 247.5390056168088 L385.8107560296846 220.91117120865403 L393.941646567718 212.9228208862076 L402.0725371057514 247.5390056168088 L410.2034276437848 251.533180778032 L418.33431818181816 217.58269190763468 " fill="none" stroke-width="2.0" stroke="rgb(252,141,98)" stroke-opacity="1.0">
          </path>
        </g>
      </g>
    </g>
    <g class="plt-plot-title" transform="translate(52.13 13.5 ) ">
      <text style="fill:#171717;" dy="0.35em">
      Experiments
      </text>
    </g>
    <g class="plt-axis">
      <g transform="translate(4.0 197.0 ) rotate(-90.0 ) " class="plt-axis-title">
        <text text-anchor="middle" dy="0.7em" style="fill:#474747;">
        Time
        </text>
      </g>
    </g>
    <g class="plt-axis">
      <g transform="translate(271.2575 396.0 ) " class="plt-axis-title">
        <text text-anchor="middle" style="fill:#474747;">
        Threads
        </text>
      </g>
    </g>
    <g transform="translate(500.385 170.5 ) " class="plt_legend">
      <rect x="5.0" y="5.0" height="76.0" width="89.61500000000001" fill="rgb(255,255,255)" fill-opacity="1.0">
      </rect>
      <g transform="translate(10.0 10.0 ) ">
        <g class="legend-title" transform="translate(0.0 -5.0 ) ">
          <text dy="0.7em" style="fill:#171717;">
          Thread
          </text>
        </g>
        <g transform="translate(0.0 15.0 ) ">
          <g transform="">
            <g>
              <rect x="1.0" y="1.0" height="21.0" width="21.0" stroke-width="1.0" stroke="rgb(255,255,255)" stroke-opacity="1.0" fill="rgb(255,255,255)" fill-opacity="1.0">
              </rect>
              <g transform="translate(1.0 1.0 ) ">
                <g>
                  <line x1="0.0" y1="10.5" x2="21.0" y2="10.5" stroke="rgb(102,194,165)" stroke-opacity="1.0" fill="rgb(17,142,216)" fill-opacity="1.0" stroke-width="1.0">
                  </line>
                </g>
              </g>
              <rect x="0.0" y="0.0" height="23.0" width="23.0" stroke-width="1.0" stroke="rgb(255,255,255)" stroke-opacity="1.0" fill="none">
              </rect>
            </g>
            <g transform="translate(27.355 11.5 ) ">
              <text style="fill:#474747;" dy="0.35em">
              Single
              </text>
            </g>
          </g>
          <g transform="translate(0.0 23.0 ) ">
            <g>
              <rect x="1.0" y="1.0" height="21.0" width="21.0" stroke-width="1.0" stroke="rgb(255,255,255)" stroke-opacity="1.0" fill="rgb(255,255,255)" fill-opacity="1.0">
              </rect>
              <g transform="translate(1.0 1.0 ) ">
                <g>
                  <line x1="0.0" y1="10.5" x2="21.0" y2="10.5" stroke="rgb(252,141,98)" stroke-opacity="1.0" fill="rgb(17,142,216)" fill-opacity="1.0" stroke-width="1.0">
                  </line>
                </g>
              </g>
              <rect x="0.0" y="0.0" height="23.0" width="23.0" stroke-width="1.0" stroke="rgb(255,255,255)" stroke-opacity="1.0" fill="none">
              </rect>
            </g>
            <g transform="translate(27.355 11.5 ) ">
              <text style="fill:#474747;" dy="0.35em">
              Multi
              </text>
            </g>
          </g>
        </g>
      </g>
    </g>
  </g>
</svg>